<?xml version="1.0" encoding="utf-8" ?>
<svg baseProfile="full" height="500" version="1.1" width="500" xmlns="http://www.w3.org/2000/svg" xmlns:ev="http://www.w3.org/2001/xml-events" xmlns:xlink="http://www.w3.org/1999/xlink"><defs /><path d="M 268,280 L 266,282 L 265,282 L 264,283 L 264,284 L 263,285 L 263,286 L 262,287 L 262,294 L 263,295 L 263,296 L 264,297 L 264,298 L 265,299 L 266,299 L 267,300 L 270,300 L 271,301 L 272,301 L 273,300 L 275,300 L 276,299 L 277,299 L 278,298 L 278,297 L 279,296 L 277,296 L 275,298 L 271,298 L 270,297 L 269,297 L 266,294 L 266,292 L 265,291 L 267,289 L 268,290 L 269,289 L 279,289 L 279,285 L 278,284 L 278,283 L 276,281 L 275,281 L 274,280 Z" fill="black" stroke="none" /><path d="M 250,280 L 249,281 L 247,281 L 246,282 L 246,283 L 248,283 L 249,284 L 249,298 L 248,299 L 246,299 L 246,300 L 257,300 L 257,299 L 255,299 L 253,297 L 253,293 L 252,292 L 252,288 L 253,287 L 253,286 L 256,283 L 257,284 L 259,284 L 261,282 L 261,281 L 260,280 L 257,280 L 256,281 L 255,281 L 254,282 L 254,283 L 253,284 L 252,283 L 252,280 Z" fill="black" stroke="none" /><path d="M 231,280 L 230,281 L 229,281 L 228,282 L 227,282 L 226,283 L 226,284 L 225,285 L 225,286 L 224,287 L 224,294 L 225,295 L 225,296 L 229,300 L 232,300 L 233,301 L 234,301 L 235,300 L 238,300 L 240,298 L 241,298 L 241,297 L 243,295 L 243,292 L 244,291 L 244,289 L 243,288 L 243,285 L 242,284 L 242,283 L 241,282 L 240,282 L 238,280 Z" fill="black" stroke="none" /><path d="M 214,276 L 210,280 L 209,280 L 208,281 L 208,282 L 211,282 L 212,283 L 211,284 L 211,285 L 212,286 L 211,287 L 211,295 L 212,296 L 212,298 L 214,300 L 217,300 L 218,301 L 219,300 L 221,300 L 223,298 L 223,297 L 222,297 L 221,298 L 217,298 L 215,296 L 215,293 L 214,292 L 215,291 L 215,283 L 216,282 L 222,282 L 222,280 L 216,280 L 215,279 L 215,276 Z" fill="black" stroke="none" /><path d="M 196,272 L 195,273 L 193,273 L 192,274 L 191,274 L 190,275 L 190,276 L 189,277 L 189,279 L 188,280 L 189,281 L 189,283 L 192,286 L 193,286 L 195,288 L 197,288 L 198,289 L 199,289 L 202,292 L 202,293 L 203,294 L 202,295 L 202,296 L 199,299 L 195,299 L 194,298 L 192,298 L 191,297 L 191,295 L 190,294 L 190,293 L 189,293 L 188,294 L 188,295 L 189,296 L 189,299 L 190,299 L 191,300 L 193,300 L 194,301 L 198,301 L 199,300 L 201,300 L 202,299 L 203,299 L 206,296 L 206,290 L 203,287 L 202,287 L 201,286 L 200,286 L 199,285 L 198,285 L 197,284 L 196,284 L 193,281 L 193,280 L 192,279 L 192,277 L 195,274 L 200,274 L 203,277 L 203,278 L 204,279 L 205,279 L 205,274 L 204,273 L 202,273 L 201,272 Z" fill="black" stroke="none" /><path d="M 272,242 L 271,243 L 269,243 L 269,244 L 270,244 L 271,245 L 271,255 L 269,257 L 277,257 L 277,256 L 275,256 L 274,255 L 274,246 L 275,245 L 279,245 L 280,244 L 280,243 L 279,242 L 277,242 L 275,244 L 273,242 Z" fill="black" stroke="none" /><path d="M 194,242 L 193,243 L 194,243 L 195,244 L 195,245 L 196,246 L 196,247 L 197,248 L 197,249 L 198,250 L 198,251 L 199,252 L 199,253 L 200,254 L 200,255 L 201,256 L 201,257 L 200,258 L 200,259 L 199,260 L 199,261 L 198,262 L 197,262 L 196,263 L 195,263 L 194,264 L 194,265 L 198,265 L 199,264 L 199,263 L 200,262 L 200,261 L 201,260 L 201,259 L 202,258 L 202,257 L 203,256 L 203,255 L 204,254 L 204,253 L 205,252 L 205,251 L 206,250 L 206,248 L 207,247 L 207,246 L 210,243 L 210,242 L 205,242 L 204,243 L 205,243 L 206,244 L 206,246 L 205,247 L 205,249 L 204,250 L 204,251 L 202,253 L 201,252 L 201,250 L 200,249 L 200,248 L 199,247 L 199,246 L 198,245 L 198,244 L 199,243 L 200,243 L 200,242 Z" fill="black" stroke="none" /><path d="M 184,242 L 183,243 L 182,243 L 180,245 L 180,246 L 181,247 L 182,247 L 183,246 L 183,244 L 184,243 L 185,243 L 186,244 L 187,244 L 188,245 L 188,246 L 189,247 L 189,248 L 188,249 L 187,249 L 186,250 L 184,250 L 183,251 L 182,251 L 180,253 L 180,255 L 182,257 L 183,257 L 184,258 L 185,257 L 187,257 L 188,256 L 189,257 L 193,257 L 194,256 L 192,256 L 191,255 L 191,245 L 189,243 L 188,243 L 187,242 Z" fill="black" stroke="none" /><path d="M 156,237 L 156,238 L 157,238 L 158,239 L 158,240 L 159,241 L 159,252 L 158,253 L 158,255 L 156,257 L 169,257 L 170,256 L 171,256 L 172,255 L 173,255 L 175,253 L 175,252 L 176,251 L 176,243 L 175,242 L 175,241 L 172,238 L 170,238 L 169,237 Z" fill="black" stroke="none" /><path d="M 260,236 L 259,237 L 256,237 L 255,238 L 254,238 L 251,241 L 251,242 L 250,243 L 250,245 L 249,246 L 249,248 L 250,249 L 250,252 L 254,256 L 255,256 L 256,257 L 258,257 L 259,258 L 261,258 L 262,257 L 265,257 L 266,256 L 267,256 L 267,253 L 268,252 L 266,252 L 266,253 L 263,256 L 258,256 L 257,255 L 256,255 L 255,254 L 255,253 L 253,251 L 253,243 L 254,242 L 254,241 L 256,239 L 257,239 L 258,238 L 264,238 L 265,239 L 265,241 L 266,242 L 267,242 L 267,238 L 266,237 L 263,237 L 262,236 Z" fill="black" stroke="none" /><path d="M 302,233 L 299,236 L 299,241 L 297,243 L 296,243 L 296,244 L 298,244 L 299,245 L 299,255 L 298,256 L 297,256 L 296,257 L 295,256 L 294,256 L 293,255 L 293,254 L 292,253 L 293,252 L 293,249 L 292,248 L 293,247 L 293,246 L 292,245 L 292,244 L 291,243 L 290,243 L 289,242 L 286,242 L 285,243 L 284,243 L 283,244 L 282,244 L 282,247 L 284,247 L 284,245 L 286,243 L 287,244 L 288,244 L 290,246 L 290,248 L 288,250 L 286,250 L 285,251 L 283,251 L 281,253 L 281,254 L 282,255 L 282,256 L 283,257 L 288,257 L 289,256 L 290,256 L 291,257 L 304,257 L 304,256 L 302,256 L 301,255 L 301,245 L 302,244 L 307,244 L 308,245 L 308,255 L 310,257 L 315,257 L 316,256 L 317,256 L 317,255 L 316,255 L 315,256 L 313,256 L 310,253 L 310,245 L 311,244 L 315,244 L 316,243 L 316,242 L 311,242 L 310,241 L 310,239 L 306,243 L 305,243 L 304,242 L 302,242 L 301,241 L 301,236 L 303,234 L 304,234 L 305,235 L 307,235 L 307,234 L 306,233 Z" fill="black" stroke="none" /><path d="M 229,233 L 228,234 L 226,234 L 226,235 L 227,235 L 228,236 L 228,255 L 227,256 L 224,256 L 223,255 L 223,254 L 222,253 L 222,251 L 223,250 L 223,249 L 222,248 L 223,247 L 222,246 L 222,244 L 221,243 L 220,243 L 219,242 L 216,242 L 215,243 L 214,243 L 213,244 L 212,244 L 212,247 L 214,247 L 214,245 L 216,243 L 217,244 L 218,244 L 220,246 L 220,248 L 218,250 L 216,250 L 215,251 L 213,251 L 212,252 L 212,253 L 211,254 L 212,255 L 212,256 L 213,257 L 218,257 L 219,256 L 220,256 L 221,257 L 233,257 L 233,256 L 232,256 L 231,255 L 231,252 L 232,251 L 238,257 L 242,257 L 242,256 L 240,256 L 238,254 L 238,253 L 234,249 L 240,243 L 241,243 L 241,242 L 235,242 L 235,243 L 236,244 L 236,245 L 232,249 L 231,248 L 231,233 Z" fill="black" stroke="none" /><path d="M 365,216 L 364,217 L 364,218 L 366,220 L 366,221 L 367,222 L 367,223 L 368,224 L 368,225 L 369,226 L 369,227 L 370,228 L 370,230 L 371,231 L 371,233 L 372,234 L 372,236 L 373,237 L 373,238 L 374,239 L 374,241 L 375,242 L 375,243 L 376,244 L 376,245 L 379,248 L 379,249 L 384,254 L 385,254 L 386,255 L 388,255 L 389,256 L 393,256 L 394,255 L 396,255 L 399,252 L 399,248 L 398,247 L 398,246 L 395,243 L 394,243 L 393,244 L 393,245 L 395,245 L 397,247 L 397,250 L 394,253 L 390,253 L 389,252 L 387,252 L 385,250 L 384,250 L 380,246 L 380,245 L 378,243 L 378,242 L 377,241 L 377,240 L 376,239 L 376,237 L 375,236 L 375,234 L 374,233 L 374,232 L 373,231 L 373,229 L 372,228 L 372,226 L 371,225 L 371,224 L 370,223 L 370,222 L 369,221 L 369,220 L 367,218 L 367,217 L 366,216 Z" fill="black" stroke="none" /><path d="M 371,211 L 371,212 L 370,213 L 369,213 L 368,214 L 369,214 L 371,216 L 371,217 L 373,219 L 373,220 L 374,221 L 374,222 L 376,224 L 376,225 L 379,228 L 379,229 L 381,231 L 382,231 L 384,233 L 385,233 L 386,234 L 389,234 L 390,235 L 391,235 L 392,234 L 393,234 L 394,233 L 395,233 L 396,232 L 396,231 L 397,230 L 397,226 L 396,225 L 396,224 L 395,223 L 394,223 L 393,222 L 390,222 L 389,223 L 388,223 L 388,226 L 390,226 L 391,225 L 393,227 L 393,228 L 390,231 L 387,231 L 386,230 L 385,230 L 384,229 L 383,229 L 381,227 L 381,226 L 376,221 L 376,220 L 375,219 L 375,218 L 373,216 L 373,215 L 371,213 Z" fill="black" stroke="none" /><path d="M 373,206 L 373,209 L 377,209 L 378,210 L 379,210 L 382,213 L 381,214 L 380,214 L 380,216 L 383,216 L 384,215 L 384,212 L 383,211 L 383,210 L 381,208 L 380,208 L 379,207 L 377,207 L 376,206 Z" fill="black" stroke="none" /><path d="M 364,201 L 363,202 L 362,202 L 362,203 L 360,205 L 360,206 L 359,207 L 358,207 L 357,208 L 356,208 L 355,207 L 356,208 L 354,210 L 352,208 L 352,209 L 354,211 L 354,212 L 355,213 L 355,214 L 356,215 L 356,216 L 357,217 L 357,218 L 358,219 L 358,220 L 359,221 L 359,223 L 360,224 L 360,226 L 361,227 L 361,229 L 362,230 L 362,243 L 361,244 L 361,246 L 359,248 L 359,249 L 356,252 L 354,252 L 353,253 L 352,253 L 351,252 L 350,252 L 348,250 L 348,249 L 347,248 L 347,245 L 348,244 L 348,243 L 351,240 L 354,243 L 354,244 L 353,245 L 352,245 L 352,246 L 354,246 L 354,240 L 353,240 L 352,239 L 349,239 L 346,242 L 346,249 L 347,250 L 347,251 L 348,252 L 348,253 L 349,253 L 350,254 L 351,254 L 352,255 L 356,255 L 357,254 L 359,254 L 362,251 L 362,250 L 363,249 L 363,248 L 364,247 L 364,244 L 365,243 L 365,229 L 364,228 L 364,224 L 363,223 L 363,220 L 362,219 L 362,218 L 360,218 L 358,216 L 360,214 L 361,214 L 362,213 L 364,213 L 363,212 L 364,211 L 366,211 L 367,210 L 367,209 L 368,208 L 368,207 L 370,205 L 370,202 L 369,201 Z" fill="black" stroke="none" /><path d="M 124,190 L 123,191 L 123,255 L 124,254 L 125,254 L 139,240 L 139,216 L 140,215 L 154,215 L 155,216 L 154,217 L 154,218 L 155,219 L 155,220 L 154,221 L 155,222 L 155,224 L 154,225 L 155,226 L 165,216 L 166,216 L 172,210 L 173,210 L 178,215 L 179,215 L 185,221 L 186,220 L 185,219 L 185,190 Z" fill="black" stroke="none" /><path d="M 354,151 L 351,154 L 350,153 L 345,158 L 344,158 L 343,159 L 343,160 L 342,161 L 342,162 L 341,163 L 341,168 L 340,169 L 340,170 L 339,171 L 339,174 L 338,175 L 338,176 L 337,177 L 337,178 L 336,179 L 336,180 L 335,181 L 334,181 L 331,184 L 330,184 L 329,185 L 323,185 L 320,182 L 319,182 L 316,179 L 315,179 L 313,177 L 307,177 L 307,178 L 305,180 L 304,180 L 307,180 L 308,181 L 308,182 L 311,185 L 312,185 L 313,186 L 315,186 L 316,187 L 319,187 L 320,188 L 322,188 L 323,189 L 324,189 L 325,190 L 321,194 L 320,194 L 318,196 L 317,196 L 316,197 L 315,197 L 314,198 L 312,198 L 311,199 L 310,199 L 309,200 L 308,200 L 307,201 L 306,201 L 305,202 L 303,202 L 302,203 L 301,203 L 300,204 L 301,205 L 300,206 L 300,207 L 301,207 L 302,208 L 302,209 L 301,210 L 303,210 L 304,209 L 305,210 L 305,212 L 304,213 L 304,214 L 305,215 L 307,213 L 308,214 L 308,217 L 309,218 L 310,217 L 310,215 L 311,214 L 312,215 L 312,217 L 313,218 L 314,217 L 314,216 L 315,215 L 316,216 L 316,217 L 317,218 L 318,218 L 318,217 L 319,216 L 322,216 L 322,215 L 323,214 L 324,215 L 326,213 L 328,213 L 329,212 L 332,212 L 333,211 L 334,211 L 335,212 L 335,218 L 336,219 L 336,220 L 337,221 L 337,222 L 333,226 L 333,227 L 331,229 L 331,230 L 329,232 L 329,233 L 328,234 L 328,236 L 327,237 L 327,245 L 328,246 L 328,248 L 331,251 L 337,251 L 339,249 L 340,249 L 340,248 L 341,247 L 341,242 L 340,241 L 336,241 L 338,243 L 338,245 L 336,247 L 334,247 L 333,246 L 332,246 L 331,245 L 331,244 L 330,243 L 330,239 L 331,238 L 331,236 L 332,235 L 332,234 L 333,233 L 333,232 L 335,230 L 335,229 L 337,227 L 337,226 L 338,225 L 339,225 L 340,226 L 341,226 L 342,227 L 348,227 L 350,225 L 350,221 L 349,221 L 348,220 L 347,220 L 346,221 L 346,222 L 348,222 L 349,223 L 347,225 L 343,225 L 341,223 L 341,222 L 342,221 L 342,220 L 345,217 L 345,216 L 346,215 L 346,214 L 347,213 L 347,212 L 348,211 L 348,208 L 349,207 L 349,204 L 350,203 L 351,203 L 352,204 L 351,203 L 351,201 L 352,200 L 353,201 L 352,200 L 352,199 L 353,198 L 354,198 L 355,199 L 356,198 L 367,198 L 368,197 L 370,197 L 371,196 L 373,196 L 374,195 L 375,195 L 376,194 L 378,194 L 379,193 L 380,193 L 381,192 L 382,192 L 384,190 L 386,190 L 390,194 L 390,198 L 387,201 L 386,201 L 385,200 L 384,200 L 383,199 L 384,198 L 384,197 L 382,197 L 380,199 L 380,200 L 382,202 L 382,203 L 383,203 L 384,204 L 389,204 L 390,203 L 391,203 L 393,201 L 393,200 L 394,199 L 394,195 L 393,194 L 393,193 L 392,192 L 392,191 L 389,188 L 389,187 L 392,184 L 393,184 L 394,183 L 395,183 L 396,182 L 397,182 L 398,181 L 399,181 L 400,180 L 410,180 L 412,182 L 412,184 L 410,186 L 408,186 L 405,183 L 404,184 L 404,187 L 405,188 L 406,188 L 407,189 L 409,189 L 410,188 L 411,188 L 413,186 L 413,181 L 409,177 L 406,177 L 405,176 L 402,176 L 401,177 L 398,177 L 397,178 L 396,178 L 395,179 L 394,179 L 393,180 L 392,180 L 390,182 L 389,182 L 385,186 L 381,186 L 380,185 L 371,185 L 370,186 L 365,186 L 364,187 L 363,186 L 363,184 L 364,183 L 365,183 L 365,178 L 366,177 L 366,174 L 367,173 L 367,172 L 366,171 L 368,169 L 364,169 L 363,168 L 363,167 L 364,166 L 365,166 L 366,165 L 361,165 L 360,166 L 359,165 L 359,164 L 360,163 L 361,163 L 362,162 L 363,162 L 366,159 L 364,159 L 363,160 L 361,160 L 360,159 L 364,155 L 362,155 L 360,157 L 359,157 L 357,159 L 356,159 L 355,158 L 358,155 L 358,154 L 360,152 L 359,152 L 358,153 L 357,153 L 353,157 L 352,156 L 352,155 L 354,153 L 354,152 L 355,151 Z" fill="black" stroke="none" /></svg>